<svg width="12" height="13" viewBox="0 0 12 13" fill="none" xmlns="http://www.w3.org/2000/svg">
<path d="M2.39963 4.08314L3.87896 5.56247L3.05413 6.3873L0.166626 3.4998L3.05413 0.612305L3.87896 1.43714L2.39963 2.91647H4.49146H6.58329C7.82097 2.91647 9.00796 3.40814 9.88313 4.28331C10.7583 5.15848 11.25 6.34546 11.25 7.58314C11.25 8.82081 10.7583 10.0078 9.88313 10.883C9.00796 11.7581 7.82097 12.2498 6.58329 12.2498H1.33329V11.0831H6.58329C7.51155 11.0831 8.40179 10.7144 9.05817 10.058C9.71454 9.40164 10.0833 8.5114 10.0833 7.58314C10.0833 6.65488 9.71454 5.76464 9.05817 5.10826C8.40179 4.45189 7.51155 4.08314 6.58329 4.08314H2.39963Z" fill="white"/>
</svg>
