<svg width="12" height="13" viewBox="0 0 12 13" fill="none" xmlns="http://www.w3.org/2000/svg">
<path d="M2.39969 4.08314L3.87902 5.56247L3.05419 6.3873L0.166687 3.4998L3.05419 0.612305L3.87902 1.43714L2.39969 2.91647H4.49152H6.58335C7.82103 2.91647 9.00802 3.40814 9.88319 4.28331C10.7584 5.15848 11.25 6.34546 11.25 7.58314C11.25 8.82081 10.7584 10.0078 9.88319 10.883C9.00802 11.7581 7.82103 12.2498 6.58335 12.2498H1.33335V11.0831H6.58335C7.51161 11.0831 8.40185 10.7144 9.05823 10.058C9.71461 9.40164 10.0834 8.5114 10.0834 7.58314C10.0834 6.65488 9.71461 5.76464 9.05823 5.10826C8.40185 4.45189 7.51161 4.08314 6.58335 4.08314H2.39969Z" fill="black"/>
</svg>
