<svg width="17" height="17" viewBox="0 0 17 17" fill="none" xmlns="http://www.w3.org/2000/svg">
<path d="M8.16 16.32C3.65872 16.32 0 12.6613 0 8.16C0 3.65872 3.65872 0 8.16 0C12.6613 0 16.32 3.65872 16.32 8.16C16.32 12.6613 12.6613 16.32 8.16 16.32ZM8.16 1.1386C4.28874 1.1386 1.1386 4.28874 1.1386 8.16C1.1386 12.0313 4.28874 15.1814 8.16 15.1814C12.0313 15.1814 15.1814 12.0313 15.1814 8.16C15.1814 4.28874 12.0313 1.1386 8.16 1.1386Z" fill="#292D32"/>
<path d="M9.66067 10.2376C9.51651 10.2376 9.37236 10.1845 9.25855 10.0707L5.51048 6.315C5.29045 6.09494 5.29045 5.73075 5.51048 5.51072C5.73051 5.2907 6.09469 5.2907 6.31472 5.51072L10.0628 9.26641C10.2828 9.48644 10.2828 9.85062 10.0628 10.0707C9.94898 10.1845 9.80482 10.2376 9.66067 10.2376Z" fill="#292D32"/>
<path d="M5.9126 10.2388C5.76844 10.2388 5.62429 10.1857 5.51048 10.0718C5.29045 9.85182 5.29045 9.48763 5.51048 9.2676L9.25855 5.51951C9.47858 5.29949 9.84276 5.29949 10.0628 5.51951C10.2828 5.73954 10.2828 6.10373 10.0628 6.32378L6.31472 10.0718C6.20091 10.1857 6.05676 10.2388 5.9126 10.2388Z" fill="#292D32"/>
</svg>
