<svg width="17" height="17" viewBox="0 0 17 17" fill="none" xmlns="http://www.w3.org/2000/svg">
<path d="M8.32516 16.32C3.82388 16.32 0.165161 12.6613 0.165161 8.16C0.165161 3.65872 3.82388 0 8.32516 0C12.8264 0 16.4852 3.65872 16.4852 8.16C16.4852 12.6613 12.8264 16.32 8.32516 16.32ZM8.32516 1.1386C4.45391 1.1386 1.30377 4.28874 1.30377 8.16C1.30377 12.0313 4.45391 15.1814 8.32516 15.1814C12.1964 15.1814 15.3466 12.0313 15.3466 8.16C15.3466 4.28874 12.1964 1.1386 8.32516 1.1386Z" fill="#292D32"/>
<path d="M7.24686 10.8781C7.09505 10.8781 6.95082 10.8174 6.84455 10.7111L4.69635 8.56297C4.47622 8.34284 4.47622 7.97849 4.69635 7.75836C4.91648 7.53823 5.28083 7.53823 5.50096 7.75836L7.24686 9.50422L11.1485 5.6026C11.3686 5.38247 11.733 5.38247 11.9531 5.6026C12.1732 5.82273 12.1732 6.18708 11.9531 6.40721L7.64917 10.7111C7.5429 10.8174 7.39867 10.8781 7.24686 10.8781Z" fill="#292D32"/>
</svg>
