<svg width="20" height="20" viewBox="0 0 20 20" fill="none" xmlns="http://www.w3.org/2000/svg">
<path fill-rule="evenodd" clip-rule="evenodd" d="M0.684797 20H0.661319C0.57523 19.998 0.489141 19.9804 0.405009 19.9433C0.154569 19.8337 0.00391313 19.5911 0 19.3348V19.3172C0.00195656 19.2311 0.0195656 19.143 0.0567404 19.0569L1.82743 14.9873C1.38916 14.279 1.03698 13.5062 0.786539 12.6844C0.508707 11.7726 0.358051 10.81 0.358051 9.82C0.358051 7.1082 1.45764 4.65467 3.23616 2.87615C5.01272 1.09959 7.4682 0 10.18 0C12.8918 0 15.3453 1.09959 17.1238 2.87615C18.9004 4.65467 20 7.1082 20 9.82C20 12.5318 18.9004 14.9873 17.1238 16.7638C15.3453 18.5424 12.8918 19.6419 10.18 19.6419C9.18803 19.6419 8.22735 19.4913 7.31559 19.2135C6.49384 18.963 5.72099 18.6108 5.01272 18.1726L0.943064 19.9433C0.860888 19.9785 0.772843 19.998 0.684797 20ZM1.70808 9.82C1.70808 10.6868 1.83526 11.5183 2.072 12.295C2.31853 13.0992 2.68245 13.8564 3.14811 14.5471C3.28898 14.7564 3.29681 15.0186 3.1892 15.2299L1.97222 18.0278L4.80728 16.7951C5.02641 16.6993 5.26903 16.7286 5.45294 16.8538V16.8519C6.14361 17.3175 6.9008 17.6815 7.70495 17.928C8.48171 18.1647 9.31325 18.2919 10.18 18.2919C12.5181 18.2919 14.6371 17.343 16.169 15.811C17.703 14.277 18.65 12.16 18.65 9.82C18.65 7.4819 17.703 5.36294 16.169 3.83095C14.6371 2.29701 12.5181 1.35003 10.18 1.35003C7.83995 1.35003 5.72295 2.29701 4.189 3.83095C2.65701 5.36294 1.70808 7.4819 1.70808 9.82ZM10.1291 13.9914C10.8824 13.9914 11.4929 14.6038 11.4929 15.3571C11.4929 16.1123 10.8824 16.7228 10.1291 16.7228C9.3739 16.7228 8.76345 16.1123 8.76345 15.3571C8.76345 14.6038 9.3739 13.9914 10.1291 13.9914ZM5.54686 7.92995C5.56251 7.25103 5.68186 6.6308 5.89904 6.06339C6.11818 5.49795 6.42536 5.00685 6.8245 4.58814C7.22364 4.17335 7.70104 3.85052 8.25866 3.6216C8.81432 3.39268 9.43651 3.27529 10.1272 3.27333C10.8374 3.27529 11.4557 3.35746 11.984 3.51203C12.5122 3.66464 12.9544 3.87595 13.3203 4.13422C13.6803 4.39444 13.9738 4.68401 14.1968 5.00293C14.416 5.3212 14.5758 5.64534 14.6762 5.97535C14.774 6.30405 14.8249 6.61514 14.821 6.91058C14.819 7.36646 14.774 7.75973 14.6899 8.09235C14.6018 8.42497 14.4825 8.71454 14.3338 8.95715C14.1831 9.19781 14.0168 9.41107 13.829 9.59499C13.6392 9.77695 13.4416 9.94326 13.2381 10.0978C12.9642 10.2922 12.6968 10.4898 12.4359 10.6907C12.1757 10.8883 11.9527 11.1152 11.7648 11.3696C11.575 11.6279 11.4498 11.935 11.3911 12.3029V13.019H8.84563V12.1718C8.88671 11.6279 8.99041 11.172 9.15281 10.8041C9.31716 10.4363 9.51477 10.1252 9.74956 9.87478C9.9863 9.62238 10.2309 9.39933 10.4852 9.2115C10.7337 9.01976 10.9626 8.83389 11.17 8.64801C11.3774 8.46605 11.5437 8.25474 11.6709 8.02583C11.7961 7.793 11.8587 7.50734 11.8626 7.17472C11.8587 6.59949 11.7139 6.17296 11.4342 5.89513C11.1544 5.6173 10.7611 5.47447 10.2583 5.47838C9.91978 5.48034 9.63021 5.5449 9.38564 5.67208C9.14302 5.79926 8.94345 5.97535 8.78497 6.20035C8.63236 6.42731 8.51497 6.68558 8.4367 6.98102C8.36236 7.27646 8.32127 7.59343 8.31735 7.92995H5.54686Z" fill="black"/>
</svg>
